<svg width="59" height="55" viewBox="0 0 59 55" fill="none" xmlns="http://www.w3.org/2000/svg">
<path fill-rule="evenodd" clip-rule="evenodd" d="M29.5 55C45.7924 55 59 42.6878 59 27.5C59 20.0491 55.8213 13.2903 50.6591 8.33774V35.8466C50.6591 39.5966 49.7727 42.8949 48 45.7415C46.2443 48.5881 43.7727 50.8125 40.5852 52.4148C37.3977 54 33.6733 54.7926 29.4119 54.7926C25.1335 54.7926 21.4006 54 18.2131 52.4148C15.0256 50.8125 12.554 48.5881 10.7983 45.7415C9.04261 42.8949 8.16477 39.5966 8.16477 35.8466V8.50818C3.10649 13.4448 0 20.1342 0 27.5C0 42.6878 13.2076 55 29.5 55ZM17.6506 2.30842V35.054C17.6506 37.2358 18.1278 39.179 19.0824 40.8835C20.054 42.5881 21.4176 43.9261 23.1733 44.8977C24.929 45.8523 27.0085 46.3295 29.4119 46.3295C31.8153 46.3295 33.8949 45.8523 35.6506 44.8977C37.4233 43.9261 38.7869 42.5881 39.7415 40.8835C40.696 39.179 41.1733 37.2358 41.1733 35.054V2.23697C37.5933 0.79751 33.6465 0 29.5 0C25.2853 0 21.2771 0.823928 17.6506 2.30842Z" fill="url(#paint0_linear_907_39)"/>
<defs>
<linearGradient id="paint0_linear_907_39" x1="1.6365e-06" y1="27.5915" x2="39.5558" y2="-0.233378" gradientUnits="userSpaceOnUse">
<stop offset="0.08" stop-color="#B16CEA"/>
<stop offset="0.4" stop-color="#FF5E69"/>
<stop offset="0.77" stop-color="#FF8A56"/>
<stop offset="0.91" stop-color="#FFA84B"/>
</linearGradient>
</defs>
</svg>
